<svg xmlns="http://www.w3.org/2000/svg" width="793" height="185" viewBox="0 0 793 185" role="img" aria-label="Custom contribution grid (dark)">
<style>text{font-family:-apple-system,BlinkMacSystemFont,"Segoe UI",Helvetica,Arial,sans-serif;font-size:10px;fill:#8b949e}.t{font-size:12px}.l0{fill:#161b22}.l1{fill:#0e4429}.l2{fill:#006d32}.l3{fill:#26a641}.l4{fill:#39d353}.o{opacity:0.28}.h{stroke:#26a641;stroke-width:1}</style>
<text class="t" x="12" y="24">602 contributions in the last year</text>
<text x="70" y="46">Oct</text>
<text x="126" y="46">Nov</text>
<text x="196" y="46">Dec</text>
<text x="252" y="46">Jan</text>
<text x="308" y="46">Feb</text>
<text x="364" y="46">Mar</text>
<text x="434" y="46">Apr</text>
<text x="490" y="46">May</text>
<text x="560" y="46">Jun</text>
<text x="616" y="46">Jul</text>
<text x="672" y="46">Aug</text>
<text x="742" y="46">Sep</text>
<text x="12" y="76">Mon</text>
<text x="12" y="104">Wed</text>
<text x="12" y="132">Fri</text>
<rect class="l0 h" x="42.5" y="66.5" width="10" height="10" rx="2"/>
<rect class="l0 h" x="42.5" y="80.5" width="10" height="10" rx="2"/>
<rect class="l0 h" x="42.5" y="94.5" width="10" height="10" rx="2"/>
<rect class="l0 o" x="42" y="108" width="11" height="11" rx="2"/>
<rect class="l0 o" x="42" y="122" width="11" height="11" rx="2"/>
<rect class="l0 o" x="42" y="136" width="11" height="11" rx="2"/>
<rect class="l0 h" x="56.5" y="52.5" width="10" height="10" rx="2"/>
<rect class="l0 h" x="56.5" y="66.5" width="10" height="10" rx="2"/>
<rect class="l0 h" x="56.5" y="80.5" width="10" height="10" rx="2"/>
<rect class="l0 h" x="56.5" y="94.5" width="10" height="10" rx="2"/>
<rect class="l0 h" x="56.5" y="108.5" width="10" height="10" rx="2"/>
<rect class="l0 o" x="56" y="122" width="11" height="11" rx="2"/>
<rect class="l0 o" x="56" y="136" width="11" height="11" rx="2"/>
<rect class="l0 h" x="70.5" y="52.5" width="10" height="10" rx="2"/>
<rect class="l0 h" x="70.5" y="66.5" width="10" height="10" rx="2"/>
<rect class="l0 h" x="70.5" y="80.5" width="10" height="10" rx="2"/>
<rect class="l0 h" x="70.5" y="94.5" width="10" height="10" rx="2"/>
<rect class="l0 h" x="70.5" y="108.5" width="10" height="10" rx="2"/>
<rect class="l0 h" x="70.5" y="122.5" width="10" height="10" rx="2"/>
<rect class="l0 o" x="70" y="136" width="11" height="11" rx="2"/>
<rect class="l0 o" x="84" y="52" width="11" height="11" rx="2"/>
<rect class="l0 h" x="84.5" y="66.5" width="10" height="10" rx="2"/>
<rect class="l0 h" x="84.5" y="80.5" width="10" height="10" rx="2"/>
<rect class="l0 h" x="84.5" y="94.5" width="10" height="10" rx="2"/>
<rect class="l0 h" x="84.5" y="108.5" width="10" height="10" rx="2"/>
<rect class="l0 h" x="84.5" y="122.5" width="10" height="10" rx="2"/>
<rect class="l0 h" x="84.5" y="136.5" width="10" height="10" rx="2"/>
<rect class="l0 h" x="98.5" y="52.5" width="10" height="10" rx="2"/>
<rect class="l0 h" x="98.5" y="66.5" width="10" height="10" rx="2"/>
<rect class="l0 h" x="98.5" y="80.5" width="10" height="10" rx="2"/>
<rect class="l0 h" x="98.5" y="94.5" width="10" height="10" rx="2"/>
<rect class="l0 h" x="98.5" y="108.5" width="10" height="10" rx="2"/>
<rect class="l0 h" x="98.5" y="122.5" width="10" height="10" rx="2"/>
<rect class="l0 o" x="98" y="136" width="11" height="11" rx="2"/>
<rect class="l0 h" x="112.5" y="52.5" width="10" height="10" rx="2"/>
<rect class="l0 h" x="112.5" y="66.5" width="10" height="10" rx="2"/>
<rect class="l0 h" x="112.5" y="80.5" width="10" height="10" rx="2"/>
<rect class="l0 h" x="112.5" y="94.5" width="10" height="10" rx="2"/>
<rect class="l0 h" x="112.5" y="108.5" width="10" height="10" rx="2"/>
<rect class="l0 o" x="112" y="122" width="11" height="11" rx="2"/>
<rect class="l0 o" x="112" y="136" width="11" height="11" rx="2"/>
<rect class="l0 o" x="126" y="52" width="11" height="11" rx="2"/>
<rect class="l0 h" x="126.5" y="66.5" width="10" height="10" rx="2"/>
<rect class="l0 h" x="126.5" y="80.5" width="10" height="10" rx="2"/>
<rect class="l0 h" x="126.5" y="94.5" width="10" height="10" rx="2"/>
<rect class="l0 o" x="126" y="108" width="11" height="11" rx="2"/>
<rect class="l0 o" x="126" y="122" width="11" height="11" rx="2"/>
<rect class="l0 o" x="126" y="136" width="11" height="11" rx="2"/>
<rect class="l0 o" x="140" y="52" width="11" height="11" rx="2"/>
<rect class="l0 o" x="140" y="66" width="11" height="11" rx="2"/>
<rect class="l0 o" x="140" y="80" width="11" height="11" rx="2"/>
<rect class="l0 o" x="140" y="94" width="11" height="11" rx="2"/>
<rect class="l0 o" x="140" y="108" width="11" height="11" rx="2"/>
<rect class="l0 o" x="140" y="122" width="11" height="11" rx="2"/>
<rect class="l0 o" x="140" y="136" width="11" height="11" rx="2"/>
<rect class="l0 o" x="154" y="52" width="11" height="11" rx="2"/>
<rect class="l0 o" x="154" y="66" width="11" height="11" rx="2"/>
<rect class="l0 o" x="154" y="80" width="11" height="11" rx="2"/>
<rect class="l0 o" x="154" y="94" width="11" height="11" rx="2"/>
<rect class="l0 o" x="154" y="108" width="11" height="11" rx="2"/>
<rect class="l0 o" x="154" y="122" width="11" height="11" rx="2"/>
<rect class="l0 o" x="154" y="136" width="11" height="11" rx="2"/>
<rect class="l0 o" x="168" y="52" width="11" height="11" rx="2"/>
<rect class="l0 o" x="168" y="66" width="11" height="11" rx="2"/>
<rect class="l0 o" x="168" y="80" width="11" height="11" rx="2"/>
<rect class="l0 o" x="168" y="94" width="11" height="11" rx="2"/>
<rect class="l0 o" x="168" y="108" width="11" height="11" rx="2"/>
<rect class="l0 o" x="168" y="122" width="11" height="11" rx="2"/>
<rect class="l0 o" x="168" y="136" width="11" height="11" rx="2"/>
<rect class="l0 o" x="182" y="52" width="11" height="11" rx="2"/>
<rect class="l0 h" x="182.5" y="66.5" width="10" height="10" rx="2"/>
<rect class="l0 h" x="182.5" y="80.5" width="10" height="10" rx="2"/>
<rect class="l0 h" x="182.5" y="94.5" width="10" height="10" rx="2"/>
<rect class="l0 o" x="182" y="108" width="11" height="11" rx="2"/>
<rect class="l0 o" x="182" y="122" width="11" height="11" rx="2"/>
<rect class="l0 o" x="182" y="136" width="11" height="11" rx="2"/>
<rect class="l0 h" x="196.5" y="52.5" width="10" height="10" rx="2"/>
<rect class="l0 h" x="196.5" y="66.5" width="10" height="10" rx="2"/>
<rect class="l0 h" x="196.5" y="80.5" width="10" height="10" rx="2"/>
<rect class="l0 h" x="196.5" y="94.5" width="10" height="10" rx="2"/>
<rect class="l1" x="196" y="108" width="11" height="11" rx="2"/>
<rect class="l0 o" x="196" y="122" width="11" height="11" rx="2"/>
<rect class="l0 o" x="196" y="136" width="11" height="11" rx="2"/>
<rect class="l0 h" x="210.5" y="52.5" width="10" height="10" rx="2"/>
<rect class="l0 h" x="210.5" y="66.5" width="10" height="10" rx="2"/>
<rect class="l0 h" x="210.5" y="80.5" width="10" height="10" rx="2"/>
<rect class="l0 h" x="210.5" y="94.5" width="10" height="10" rx="2"/>
<rect class="l0 h" x="210.5" y="108.5" width="10" height="10" rx="2"/>
<rect class="l0 h" x="210.5" y="122.5" width="10" height="10" rx="2"/>
<rect class="l0 o" x="210" y="136" width="11" height="11" rx="2"/>
<rect class="l0 o" x="224" y="52" width="11" height="11" rx="2"/>
<rect class="l0 h" x="224.5" y="66.5" width="10" height="10" rx="2"/>
<rect class="l0 h" x="224.5" y="80.5" width="10" height="10" rx="2"/>
<rect class="l0 h" x="224.5" y="94.5" width="10" height="10" rx="2"/>
<rect class="l0 h" x="224.5" y="108.5" width="10" height="10" rx="2"/>
<rect class="l0 h" x="224.5" y="122.5" width="10" height="10" rx="2"/>
<rect class="l0 h" x="224.5" y="136.5" width="10" height="10" rx="2"/>
<rect class="l0 h" x="238.5" y="52.5" width="10" height="10" rx="2"/>
<rect class="l0 h" x="238.5" y="66.5" width="10" height="10" rx="2"/>
<rect class="l0 h" x="238.5" y="80.5" width="10" height="10" rx="2"/>
<rect class="l0 h" x="238.5" y="94.5" width="10" height="10" rx="2"/>
<rect class="l0 h" x="238.5" y="108.5" width="10" height="10" rx="2"/>
<rect class="l0 h" x="238.5" y="122.5" width="10" height="10" rx="2"/>
<rect class="l0 o" x="238" y="136" width="11" height="11" rx="2"/>
<rect class="l2" x="252" y="52" width="11" height="11" rx="2"/>
<rect class="l0 h" x="252.5" y="66.5" width="10" height="10" rx="2"/>
<rect class="l2" x="252" y="80" width="11" height="11" rx="2"/>
<rect class="l0 h" x="252.5" y="94.5" width="10" height="10" rx="2"/>
<rect class="l1" x="252" y="108" width="11" height="11" rx="2"/>
<rect class="l0 o" x="252" y="122" width="11" height="11" rx="2"/>
<rect class="l0 o" x="252" y="136" width="11" height="11" rx="2"/>
<rect class="l0 o" x="266" y="52" width="11" height="11" rx="2"/>
<rect class="l0 h" x="266.5" y="66.5" width="10" height="10" rx="2"/>
<rect class="l0 h" x="266.5" y="80.5" width="10" height="10" rx="2"/>
<rect class="l0 h" x="266.5" y="94.5" width="10" height="10" rx="2"/>
<rect class="l0 o" x="266" y="108" width="11" height="11" rx="2"/>
<rect class="l0 o" x="266" y="122" width="11" height="11" rx="2"/>
<rect class="l0 o" x="266" y="136" width="11" height="11" rx="2"/>
<rect class="l0 o" x="280" y="52" width="11" height="11" rx="2"/>
<rect class="l0 o" x="280" y="66" width="11" height="11" rx="2"/>
<rect class="l0 o" x="280" y="80" width="11" height="11" rx="2"/>
<rect class="l0 o" x="280" y="94" width="11" height="11" rx="2"/>
<rect class="l0 o" x="280" y="108" width="11" height="11" rx="2"/>
<rect class="l0 o" x="280" y="122" width="11" height="11" rx="2"/>
<rect class="l0 o" x="280" y="136" width="11" height="11" rx="2"/>
<rect class="l0 o" x="294" y="52" width="11" height="11" rx="2"/>
<rect class="l0 o" x="294" y="66" width="11" height="11" rx="2"/>
<rect class="l0 o" x="294" y="80" width="11" height="11" rx="2"/>
<rect class="l0 o" x="294" y="94" width="11" height="11" rx="2"/>
<rect class="l0 o" x="294" y="108" width="11" height="11" rx="2"/>
<rect class="l0 o" x="294" y="122" width="11" height="11" rx="2"/>
<rect class="l0 o" x="294" y="136" width="11" height="11" rx="2"/>
<rect class="l0 o" x="308" y="52" width="11" height="11" rx="2"/>
<rect class="l0 o" x="308" y="66" width="11" height="11" rx="2"/>
<rect class="l0 o" x="308" y="80" width="11" height="11" rx="2"/>
<rect class="l0 o" x="308" y="94" width="11" height="11" rx="2"/>
<rect class="l0 o" x="308" y="108" width="11" height="11" rx="2"/>
<rect class="l0 o" x="308" y="122" width="11" height="11" rx="2"/>
<rect class="l0 o" x="308" y="136" width="11" height="11" rx="2"/>
<rect class="l0 o" x="322" y="52" width="11" height="11" rx="2"/>
<rect class="l0 h" x="322.5" y="66.5" width="10" height="10" rx="2"/>
<rect class="l0 h" x="322.5" y="80.5" width="10" height="10" rx="2"/>
<rect class="l0 h" x="322.5" y="94.5" width="10" height="10" rx="2"/>
<rect class="l0 o" x="322" y="108" width="11" height="11" rx="2"/>
<rect class="l0 o" x="322" y="122" width="11" height="11" rx="2"/>
<rect class="l0 o" x="322" y="136" width="11" height="11" rx="2"/>
<rect class="l0 h" x="336.5" y="52.5" width="10" height="10" rx="2"/>
<rect class="l0 h" x="336.5" y="66.5" width="10" height="10" rx="2"/>
<rect class="l0 h" x="336.5" y="80.5" width="10" height="10" rx="2"/>
<rect class="l0 h" x="336.5" y="94.5" width="10" height="10" rx="2"/>
<rect class="l0 h" x="336.5" y="108.5" width="10" height="10" rx="2"/>
<rect class="l0 o" x="336" y="122" width="11" height="11" rx="2"/>
<rect class="l0 o" x="336" y="136" width="11" height="11" rx="2"/>
<rect class="l0 h" x="350.5" y="52.5" width="10" height="10" rx="2"/>
<rect class="l0 h" x="350.5" y="66.5" width="10" height="10" rx="2"/>
<rect class="l0 h" x="350.5" y="80.5" width="10" height="10" rx="2"/>
<rect class="l0 h" x="350.5" y="94.5" width="10" height="10" rx="2"/>
<rect class="l0 h" x="350.5" y="108.5" width="10" height="10" rx="2"/>
<rect class="l0 h" x="350.5" y="122.5" width="10" height="10" rx="2"/>
<rect class="l0 o" x="350" y="136" width="11" height="11" rx="2"/>
<rect class="l0 o" x="364" y="52" width="11" height="11" rx="2"/>
<rect class="l0 h" x="364.5" y="66.5" width="10" height="10" rx="2"/>
<rect class="l0 h" x="364.5" y="80.5" width="10" height="10" rx="2"/>
<rect class="l0 h" x="364.5" y="94.5" width="10" height="10" rx="2"/>
<rect class="l0 h" x="364.5" y="108.5" width="10" height="10" rx="2"/>
<rect class="l0 h" x="364.5" y="122.5" width="10" height="10" rx="2"/>
<rect class="l0 h" x="364.5" y="136.5" width="10" height="10" rx="2"/>
<rect class="l0 h" x="378.5" y="52.5" width="10" height="10" rx="2"/>
<rect class="l0 h" x="378.5" y="66.5" width="10" height="10" rx="2"/>
<rect class="l0 h" x="378.5" y="80.5" width="10" height="10" rx="2"/>
<rect class="l0 h" x="378.5" y="94.5" width="10" height="10" rx="2"/>
<rect class="l0 h" x="378.5" y="108.5" width="10" height="10" rx="2"/>
<rect class="l0 h" x="378.5" y="122.5" width="10" height="10" rx="2"/>
<rect class="l0 o" x="378" y="136" width="11" height="11" rx="2"/>
<rect class="l0 h" x="392.5" y="52.5" width="10" height="10" rx="2"/>
<rect class="l0 h" x="392.5" y="66.5" width="10" height="10" rx="2"/>
<rect class="l0 h" x="392.5" y="80.5" width="10" height="10" rx="2"/>
<rect class="l0 h" x="392.5" y="94.5" width="10" height="10" rx="2"/>
<rect class="l0 h" x="392.5" y="108.5" width="10" height="10" rx="2"/>
<rect class="l0 o" x="392" y="122" width="11" height="11" rx="2"/>
<rect class="l0 o" x="392" y="136" width="11" height="11" rx="2"/>
<rect class="l0 o" x="406" y="52" width="11" height="11" rx="2"/>
<rect class="l0 h" x="406.5" y="66.5" width="10" height="10" rx="2"/>
<rect class="l0 h" x="406.5" y="80.5" width="10" height="10" rx="2"/>
<rect class="l0 h" x="406.5" y="94.5" width="10" height="10" rx="2"/>
<rect class="l0 o" x="406" y="108" width="11" height="11" rx="2"/>
<rect class="l0 o" x="406" y="122" width="11" height="11" rx="2"/>
<rect class="l0 o" x="406" y="136" width="11" height="11" rx="2"/>
<rect class="l0 o" x="420" y="52" width="11" height="11" rx="2"/>
<rect class="l0 o" x="420" y="66" width="11" height="11" rx="2"/>
<rect class="l0 o" x="420" y="80" width="11" height="11" rx="2"/>
<rect class="l0 o" x="420" y="94" width="11" height="11" rx="2"/>
<rect class="l0 o" x="420" y="108" width="11" height="11" rx="2"/>
<rect class="l0 o" x="420" y="122" width="11" height="11" rx="2"/>
<rect class="l0 o" x="420" y="136" width="11" height="11" rx="2"/>
<rect class="l0 o" x="434" y="52" width="11" height="11" rx="2"/>
<rect class="l0 o" x="434" y="66" width="11" height="11" rx="2"/>
<rect class="l0 o" x="434" y="80" width="11" height="11" rx="2"/>
<rect class="l0 o" x="434" y="94" width="11" height="11" rx="2"/>
<rect class="l0 o" x="434" y="108" width="11" height="11" rx="2"/>
<rect class="l0 o" x="434" y="122" width="11" height="11" rx="2"/>
<rect class="l0 o" x="434" y="136" width="11" height="11" rx="2"/>
<rect class="l0 o" x="448" y="52" width="11" height="11" rx="2"/>
<rect class="l0 o" x="448" y="66" width="11" height="11" rx="2"/>
<rect class="l0 o" x="448" y="80" width="11" height="11" rx="2"/>
<rect class="l0 o" x="448" y="94" width="11" height="11" rx="2"/>
<rect class="l0 o" x="448" y="108" width="11" height="11" rx="2"/>
<rect class="l0 o" x="448" y="122" width="11" height="11" rx="2"/>
<rect class="l0 o" x="448" y="136" width="11" height="11" rx="2"/>
<rect class="l0 o" x="462" y="52" width="11" height="11" rx="2"/>
<rect class="l0 h" x="462.5" y="66.5" width="10" height="10" rx="2"/>
<rect class="l0 h" x="462.5" y="80.5" width="10" height="10" rx="2"/>
<rect class="l0 h" x="462.5" y="94.5" width="10" height="10" rx="2"/>
<rect class="l0 o" x="462" y="108" width="11" height="11" rx="2"/>
<rect class="l0 o" x="462" y="122" width="11" height="11" rx="2"/>
<rect class="l0 o" x="462" y="136" width="11" height="11" rx="2"/>
<rect class="l0 h" x="476.5" y="52.5" width="10" height="10" rx="2"/>
<rect class="l0 h" x="476.5" y="66.5" width="10" height="10" rx="2"/>
<rect class="l0 h" x="476.5" y="80.5" width="10" height="10" rx="2"/>
<rect class="l0 h" x="476.5" y="94.5" width="10" height="10" rx="2"/>
<rect class="l0 h" x="476.5" y="108.5" width="10" height="10" rx="2"/>
<rect class="l0 o" x="476" y="122" width="11" height="11" rx="2"/>
<rect class="l0 o" x="476" y="136" width="11" height="11" rx="2"/>
<rect class="l0 h" x="490.5" y="52.5" width="10" height="10" rx="2"/>
<rect class="l0 h" x="490.5" y="66.5" width="10" height="10" rx="2"/>
<rect class="l0 h" x="490.5" y="80.5" width="10" height="10" rx="2"/>
<rect class="l0 h" x="490.5" y="94.5" width="10" height="10" rx="2"/>
<rect class="l0 h" x="490.5" y="108.5" width="10" height="10" rx="2"/>
<rect class="l0 h" x="490.5" y="122.5" width="10" height="10" rx="2"/>
<rect class="l0 o" x="490" y="136" width="11" height="11" rx="2"/>
<rect class="l0 o" x="504" y="52" width="11" height="11" rx="2"/>
<rect class="l0 h" x="504.5" y="66.5" width="10" height="10" rx="2"/>
<rect class="l0 h" x="504.5" y="80.5" width="10" height="10" rx="2"/>
<rect class="l0 h" x="504.5" y="94.5" width="10" height="10" rx="2"/>
<rect class="l0 h" x="504.5" y="108.5" width="10" height="10" rx="2"/>
<rect class="l0 h" x="504.5" y="122.5" width="10" height="10" rx="2"/>
<rect class="l0 h" x="504.5" y="136.5" width="10" height="10" rx="2"/>
<rect class="l0 h" x="518.5" y="52.5" width="10" height="10" rx="2"/>
<rect class="l0 h" x="518.5" y="66.5" width="10" height="10" rx="2"/>
<rect class="l0 h" x="518.5" y="80.5" width="10" height="10" rx="2"/>
<rect class="l0 h" x="518.5" y="94.5" width="10" height="10" rx="2"/>
<rect class="l1" x="518" y="108" width="11" height="11" rx="2"/>
<rect class="l0 h" x="518.5" y="122.5" width="10" height="10" rx="2"/>
<rect class="l0 o" x="518" y="136" width="11" height="11" rx="2"/>
<rect class="l0 h" x="532.5" y="52.5" width="10" height="10" rx="2"/>
<rect class="l0 h" x="532.5" y="66.5" width="10" height="10" rx="2"/>
<rect class="l0 h" x="532.5" y="80.5" width="10" height="10" rx="2"/>
<rect class="l0 h" x="532.5" y="94.5" width="10" height="10" rx="2"/>
<rect class="l0 h" x="532.5" y="108.5" width="10" height="10" rx="2"/>
<rect class="l0 o" x="532" y="122" width="11" height="11" rx="2"/>
<rect class="l0 o" x="532" y="136" width="11" height="11" rx="2"/>
<rect class="l0 o" x="546" y="52" width="11" height="11" rx="2"/>
<rect class="l2" x="546" y="66" width="11" height="11" rx="2"/>
<rect class="l0 h" x="546.5" y="80.5" width="10" height="10" rx="2"/>
<rect class="l0 h" x="546.5" y="94.5" width="10" height="10" rx="2"/>
<rect class="l0 o" x="546" y="108" width="11" height="11" rx="2"/>
<rect class="l0 o" x="546" y="122" width="11" height="11" rx="2"/>
<rect class="l0 o" x="546" y="136" width="11" height="11" rx="2"/>
<rect class="l0 o" x="560" y="52" width="11" height="11" rx="2"/>
<rect class="l0 o" x="560" y="66" width="11" height="11" rx="2"/>
<rect class="l0 o" x="560" y="80" width="11" height="11" rx="2"/>
<rect class="l0 o" x="560" y="94" width="11" height="11" rx="2"/>
<rect class="l0 o" x="560" y="108" width="11" height="11" rx="2"/>
<rect class="l0 o" x="560" y="122" width="11" height="11" rx="2"/>
<rect class="l0 o" x="560" y="136" width="11" height="11" rx="2"/>
<rect class="l0 o" x="574" y="52" width="11" height="11" rx="2"/>
<rect class="l0 o" x="574" y="66" width="11" height="11" rx="2"/>
<rect class="l0 o" x="574" y="80" width="11" height="11" rx="2"/>
<rect class="l0 o" x="574" y="94" width="11" height="11" rx="2"/>
<rect class="l0 o" x="574" y="108" width="11" height="11" rx="2"/>
<rect class="l0 o" x="574" y="122" width="11" height="11" rx="2"/>
<rect class="l0 o" x="574" y="136" width="11" height="11" rx="2"/>
<rect class="l0 o" x="588" y="52" width="11" height="11" rx="2"/>
<rect class="l0 o" x="588" y="66" width="11" height="11" rx="2"/>
<rect class="l0 o" x="588" y="80" width="11" height="11" rx="2"/>
<rect class="l0 o" x="588" y="94" width="11" height="11" rx="2"/>
<rect class="l0 o" x="588" y="108" width="11" height="11" rx="2"/>
<rect class="l0 o" x="588" y="122" width="11" height="11" rx="2"/>
<rect class="l0 o" x="588" y="136" width="11" height="11" rx="2"/>
<rect class="l0 o" x="602" y="52" width="11" height="11" rx="2"/>
<rect class="l0 h" x="602.5" y="66.5" width="10" height="10" rx="2"/>
<rect class="l0 h" x="602.5" y="80.5" width="10" height="10" rx="2"/>
<rect class="l0 h" x="602.5" y="94.5" width="10" height="10" rx="2"/>
<rect class="l0 o" x="602" y="108" width="11" height="11" rx="2"/>
<rect class="l0 o" x="602" y="122" width="11" height="11" rx="2"/>
<rect class="l0 o" x="602" y="136" width="11" height="11" rx="2"/>
<rect class="l0 h" x="616.5" y="52.5" width="10" height="10" rx="2"/>
<rect class="l0 h" x="616.5" y="66.5" width="10" height="10" rx="2"/>
<rect class="l0 h" x="616.5" y="80.5" width="10" height="10" rx="2"/>
<rect class="l0 h" x="616.5" y="94.5" width="10" height="10" rx="2"/>
<rect class="l0 h" x="616.5" y="108.5" width="10" height="10" rx="2"/>
<rect class="l0 o" x="616" y="122" width="11" height="11" rx="2"/>
<rect class="l0 o" x="616" y="136" width="11" height="11" rx="2"/>
<rect class="l2" x="630" y="52" width="11" height="11" rx="2"/>
<rect class="l0 h" x="630.5" y="66.5" width="10" height="10" rx="2"/>
<rect class="l0 h" x="630.5" y="80.5" width="10" height="10" rx="2"/>
<rect class="l0 h" x="630.5" y="94.5" width="10" height="10" rx="2"/>
<rect class="l0 h" x="630.5" y="108.5" width="10" height="10" rx="2"/>
<rect class="l0 h" x="630.5" y="122.5" width="10" height="10" rx="2"/>
<rect class="l0 o" x="630" y="136" width="11" height="11" rx="2"/>
<rect class="l0 o" x="644" y="52" width="11" height="11" rx="2"/>
<rect class="l0 h" x="644.5" y="66.5" width="10" height="10" rx="2"/>
<rect class="l0 h" x="644.5" y="80.5" width="10" height="10" rx="2"/>
<rect class="l0 h" x="644.5" y="94.5" width="10" height="10" rx="2"/>
<rect class="l0 h" x="644.5" y="108.5" width="10" height="10" rx="2"/>
<rect class="l0 h" x="644.5" y="122.5" width="10" height="10" rx="2"/>
<rect class="l3" x="644" y="136" width="11" height="11" rx="2"/>
<rect class="l0 h" x="658.5" y="52.5" width="10" height="10" rx="2"/>
<rect class="l0 h" x="658.5" y="66.5" width="10" height="10" rx="2"/>
<rect class="l0 h" x="658.5" y="80.5" width="10" height="10" rx="2"/>
<rect class="l0 h" x="658.5" y="94.5" width="10" height="10" rx="2"/>
<rect class="l0 h" x="658.5" y="108.5" width="10" height="10" rx="2"/>
<rect class="l0 h" x="658.5" y="122.5" width="10" height="10" rx="2"/>
<rect class="l0 o" x="658" y="136" width="11" height="11" rx="2"/>
<rect class="l0 h" x="672.5" y="52.5" width="10" height="10" rx="2"/>
<rect class="l0 h" x="672.5" y="66.5" width="10" height="10" rx="2"/>
<rect class="l0 h" x="672.5" y="80.5" width="10" height="10" rx="2"/>
<rect class="l0 h" x="672.5" y="94.5" width="10" height="10" rx="2"/>
<rect class="l0 h" x="672.5" y="108.5" width="10" height="10" rx="2"/>
<rect class="l0 o" x="672" y="122" width="11" height="11" rx="2"/>
<rect class="l0 o" x="672" y="136" width="11" height="11" rx="2"/>
<rect class="l0 o" x="686" y="52" width="11" height="11" rx="2"/>
<rect class="l0 h" x="686.5" y="66.5" width="10" height="10" rx="2"/>
<rect class="l1" x="686" y="80" width="11" height="11" rx="2"/>
<rect class="l0 h" x="686.5" y="94.5" width="10" height="10" rx="2"/>
<rect class="l0 o" x="686" y="108" width="11" height="11" rx="2"/>
<rect class="l0 o" x="686" y="122" width="11" height="11" rx="2"/>
<rect class="l0 o" x="686" y="136" width="11" height="11" rx="2"/>
<rect class="l0 o" x="700" y="52" width="11" height="11" rx="2"/>
<rect class="l0 o" x="700" y="66" width="11" height="11" rx="2"/>
<rect class="l0 o" x="700" y="80" width="11" height="11" rx="2"/>
<rect class="l0 o" x="700" y="94" width="11" height="11" rx="2"/>
<rect class="l0 o" x="700" y="108" width="11" height="11" rx="2"/>
<rect class="l0 o" x="700" y="122" width="11" height="11" rx="2"/>
<rect class="l0 o" x="700" y="136" width="11" height="11" rx="2"/>
<rect class="l0 o" x="714" y="52" width="11" height="11" rx="2"/>
<rect class="l0 o" x="714" y="66" width="11" height="11" rx="2"/>
<rect class="l0 o" x="714" y="80" width="11" height="11" rx="2"/>
<rect class="l0 o" x="714" y="94" width="11" height="11" rx="2"/>
<rect class="l0 o" x="714" y="108" width="11" height="11" rx="2"/>
<rect class="l0 o" x="714" y="122" width="11" height="11" rx="2"/>
<rect class="l0 o" x="714" y="136" width="11" height="11" rx="2"/>
<rect class="l0 o" x="728" y="52" width="11" height="11" rx="2"/>
<rect class="l0 o" x="728" y="66" width="11" height="11" rx="2"/>
<rect class="l0 o" x="728" y="80" width="11" height="11" rx="2"/>
<rect class="l0 o" x="728" y="94" width="11" height="11" rx="2"/>
<rect class="l0 o" x="728" y="108" width="11" height="11" rx="2"/>
<rect class="l0 o" x="728" y="122" width="11" height="11" rx="2"/>
<rect class="l0 o" x="728" y="136" width="11" height="11" rx="2"/>
<rect class="l0 o" x="742" y="52" width="11" height="11" rx="2"/>
<rect class="l3" x="742" y="66" width="11" height="11" rx="2"/>
<rect class="l4" x="742" y="80" width="11" height="11" rx="2"/>
<rect class="l1" x="742" y="94" width="11" height="11" rx="2"/>
<rect class="l0 o" x="742" y="108" width="11" height="11" rx="2"/>
<rect class="l0 o" x="742" y="122" width="11" height="11" rx="2"/>
<rect class="l0 o" x="742" y="136" width="11" height="11" rx="2"/>
<rect class="l4" x="756" y="52" width="11" height="11" rx="2"/>
<rect class="l4" x="756" y="66" width="11" height="11" rx="2"/>
<rect class="l0 h" x="756.5" y="80.5" width="10" height="10" rx="2"/>
<rect class="l2" x="756" y="94" width="11" height="11" rx="2"/>
<rect class="l4" x="756" y="108" width="11" height="11" rx="2"/>
<rect class="l0 o" x="756" y="122" width="11" height="11" rx="2"/>
<rect class="l0 o" x="756" y="136" width="11" height="11" rx="2"/>
<rect class="l4" x="770" y="52" width="11" height="11" rx="2"/>
<rect class="l1" x="770" y="66" width="11" height="11" rx="2"/>
<text x="674" y="172" text-anchor="end">Less</text>
<rect class="l0" x="680" y="162" width="11" height="11" rx="2"/>
<rect class="l1" x="694" y="162" width="11" height="11" rx="2"/>
<rect class="l2" x="708" y="162" width="11" height="11" rx="2"/>
<rect class="l3" x="722" y="162" width="11" height="11" rx="2"/>
<rect class="l4" x="736" y="162" width="11" height="11" rx="2"/>
<text x="781" y="172" text-anchor="end">More</text>
</svg>
